<svg xmlns="http://www.w3.org/2000/svg" viewBox="0 0 640 480" role="img" aria-labelledby="title desc">
  <title id="title">Low-poly model placeholder</title>
  <desc id="desc">A stylized low-poly crystal model placeholder.</desc>
  <rect width="640" height="480" fill="#080c09"/>
  <defs>
    <linearGradient id="ground" x1="0" x2="1" y1="0" y2="1">
      <stop offset="0" stop-color="#16251a"/>
      <stop offset="1" stop-color="#0a110c"/>
    </linearGradient>
    <linearGradient id="faceA" x1="0" x2="1" y1="0" y2="1">
      <stop offset="0" stop-color="#71e08b"/>
      <stop offset="1" stop-color="#256a39"/>
    </linearGradient>
    <linearGradient id="faceB" x1="0" x2="1" y1="0" y2="1">
      <stop offset="0" stop-color="#b6ffd0"/>
      <stop offset="1" stop-color="#3ba85a"/>
    </linearGradient>
  </defs>
  <path d="M64 364 214 286 344 338 576 248 576 480 64 480Z" fill="url(#ground)"/>
  <path d="M314 52 176 300 318 396Z" fill="url(#faceA)"/>
  <path d="M314 52 318 396 468 292Z" fill="#4fb96a"/>
  <path d="M314 52 468 292 392 126Z" fill="url(#faceB)"/>
  <path d="M314 52 392 126 176 300Z" fill="#8af0a3"/>
  <path d="M176 300 318 396 256 314Z" fill="#1f5f33"/>
  <path d="M318 396 468 292 382 316Z" fill="#2d8246"/>
  <path d="M392 126 468 292 382 316Z" fill="#66d47f"/>
  <path d="M176 300 392 126 256 314Z" fill="#53bd6d"/>
  <path d="M256 314 392 126 382 316 318 396Z" fill="#3c9f57"/>
  <g fill="none" stroke="#e8fff0" stroke-opacity="0.18" stroke-width="2">
    <path d="M314 52 176 300 318 396 468 292 392 126Z"/>
    <path d="M176 300 392 126 318 396 382 316 468 292"/>
  </g>
</svg>
